<svg width="50" xmlns="http://www.w3.org/2000/svg" height="56.25" id="screenshot-07a612a7-0803-809f-8007-456e43afa4f7" viewBox="0 0 50 56.25" xmlns:xlink="http://www.w3.org/1999/xlink" fill="none" version="1.1"><g id="shape-07a612a7-0803-809f-8007-456e43afa4f7"><g class="frame-container-wrapper"><g class="frame-container-blur"><g class="frame-container-shadows"><g fill="none"><g class="fills" id="fills-07a612a7-0803-809f-8007-456e43afa4f7"><rect rx="0" ry="0" x="0" y="0" width="50" height="56.25" transform="matrix(1.000000, 0.000000, 0.000000, 1.000000, 0.000000, 0.000000)" class="frame-background"/></g><g class="frame-children"><g id="shape-07a612a7-0803-809f-8007-456e43afa4f8" width="256" height="288" preserveAspectRatio="xMidYMid" rx="0" ry="0" style="fill: rgb(0, 0, 0);"><g id="shape-07a612a7-0803-809f-8007-456e43afa4f9" style="display: none;"><g class="fills" id="fills-07a612a7-0803-809f-8007-456e43afa4f9"><rect width="50" height="56.25" x="0" transform="matrix(1.000000, 0.000000, 0.000000, 1.000000, 0.000000, 0.000000)" style="fill: none;" ry="0" fill="none" rx="0" y="0"/></g></g><g id="shape-07a612a7-0803-809f-8007-456e43afa4fa"><g class="fills" id="fills-07a612a7-0803-809f-8007-456e43afa4fa"><path d="M49.91583251953125,16.49462890625C49.9154052734375,15.55126953125,49.71368408203125,14.7176513671875,49.3056640625,14.002197265625C48.9049072265625,13.2987060546875,48.3046875,12.70904541015625,47.4996337890625,12.24285888671875C40.8541259765625,8.4110107421875,34.2021484375,4.59088134765625,27.55877685546875,0.755157470703125C25.76776123046875,-0.278839111328125,24.03125,-0.24114990234375,22.2535400390625,0.80767822265625C19.6083984375,2.367645263671875,6.365234375,9.9549560546875,2.4189453125,12.24072265625C0.79376220703125,13.1815185546875,0.0029296875,14.621337890625,0.0025634765625,16.49285888671875C0,24.19891357421875,0.0025634765625,31.90478515625,0,39.61102294921875C0,40.53369140625,0.19354248046875,41.35107421875,0.5836181640625,42.05572509765625C0.98455810546875,42.780517578125,1.5931396484375,43.38641357421875,2.41680908203125,43.8631591796875C6.36328125,46.14892578125,19.60821533203125,53.735595703125,22.25274658203125,55.29595947265625C24.03125,56.34539794921875,25.76776123046875,56.3829345703125,27.55938720703125,55.3485107421875C34.20294189453125,51.5125732421875,40.85528564453125,47.692626953125,47.50177001953125,43.86083984375C48.32537841796875,43.38427734375,48.9339599609375,42.77801513671875,49.3349609375,42.05377197265625C49.72442626953125,41.34912109375,49.9183349609375,40.53173828125,49.9183349609375,39.60888671875C49.9183349609375,39.60888671875,49.9183349609375,24.20086669921875,49.91583251953125,16.49462890625" style="fill: rgb(161, 121, 220);"/></g></g><g id="shape-07a612a7-0803-809f-8007-456e43affbf5"><g class="fills" id="fills-07a612a7-0803-809f-8007-456e43affbf5"><path d="M25.0355224609375,27.976806640625L0.5836181640625,42.05572509765625C0.98455810546875,42.780517578125,1.5931396484375,43.38641357421875,2.41680908203125,43.8631591796875C6.36328125,46.14892578125,19.60821533203125,53.735595703125,22.25274658203125,55.29595947265625C24.03125,56.34539794921875,25.76776123046875,56.3829345703125,27.55938720703125,55.3485107421875C34.20294189453125,51.5125732421875,40.85528564453125,47.692626953125,47.50177001953125,43.86083984375C48.32537841796875,43.38427734375,48.9339599609375,42.77801513671875,49.3349609375,42.05377197265625L25.0355224609375,27.976806640625" style="fill: rgb(40, 0, 104);"/></g></g><g id="shape-07a612a7-0803-809f-8007-456e43affbf6"><g class="fills" id="fills-07a612a7-0803-809f-8007-456e43affbf6"><path d="M49.91583251953125,16.49462890625C49.9154052734375,15.55126953125,49.71368408203125,14.7176513671875,49.3056640625,14.002197265625L25.0355224609375,27.976806640625L49.3349609375,42.05377197265625C49.72442626953125,41.34912109375,49.91796875,40.53173828125,49.9183349609375,39.60888671875C49.9183349609375,39.60888671875,49.9183349609375,24.20086669921875,49.91583251953125,16.49462890625" style="fill: rgb(57, 0, 145);"/></g></g><g id="shape-07a612a7-0803-809f-8007-456e43affbf7"><g class="fills" id="fills-07a612a7-0803-809f-8007-456e43affbf7"><path d="M39.43206787109375,22.71368408203125L39.43206787109375,25.34521484375L42.06365966796875,25.34521484375L42.06365966796875,22.71368408203125L43.37945556640625,22.71368408203125L43.37945556640625,25.34521484375L46.01104736328125,25.34521484375L46.01104736328125,26.6610107421875L43.37945556640625,26.6610107421875L43.37945556640625,29.2926025390625L46.01104736328125,29.2926025390625L46.01104736328125,30.6083984375L43.37945556640625,30.6083984375L43.37945556640625,33.239990234375L42.06365966796875,33.239990234375L42.06365966796875,30.6083984375L39.43206787109375,30.6083984375L39.43206787109375,33.239990234375L38.1163330078125,33.239990234375L38.1163330078125,30.6083984375L35.4847412109375,30.6083984375L35.4847412109375,29.2926025390625L38.1163330078125,29.2926025390625L38.1163330078125,26.6610107421875L35.4847412109375,26.6610107421875L35.4847412109375,25.34521484375L38.1163330078125,25.34521484375L38.1163330078125,22.71368408203125L39.43206787109375,22.71368408203125ZM42.06365966796875,26.6610107421875L39.43206787109375,26.6610107421875L39.43206787109375,29.2926025390625L42.06365966796875,29.2926025390625L42.06365966796875,26.6610107421875Z" style="fill: rgb(255, 255, 255);"/></g></g><g id="shape-07a612a7-0803-809f-8007-456e43affbf8"><g class="fills" id="fills-07a612a7-0803-809f-8007-456e43affbf8"><path d="M25.0892333984375,9.49725341796875C31.9532470703125,9.49725341796875,37.946044921875,13.22503662109375,41.15594482421875,18.7659912109375L41.1246337890625,18.712646484375L33.04876708984375,23.36273193359375C31.4576416015625,20.668701171875,28.5406494140625,18.8505859375,25.194580078125,18.81317138671875L25.0892333984375,18.81256103515625C19.986572265625,18.81256103515625,15.8497314453125,22.94915771484375,15.8497314453125,28.05181884765625C15.8497314453125,29.720458984375,16.29461669921875,31.28466796875,17.06829833984375,32.6357421875C18.660888671875,35.416015625,21.65478515625,37.291259765625,25.0892333984375,37.291259765625C28.54486083984375,37.291259765625,31.5557861328125,35.3922119140625,33.14031982421875,32.5821533203125L33.101806640625,32.64959716796875L41.16558837890625,37.321044921875C37.99090576171875,42.81512451171875,32.08013916015625,46.5313720703125,25.2958984375,46.60546875L25.0892333984375,46.6065673828125C18.20355224609375,46.6065673828125,12.19366455078125,42.8558349609375,8.9918212890625,37.28564453125C7.42877197265625,34.5662841796875,6.534423828125,31.41363525390625,6.534423828125,28.05181884765625C6.534423828125,17.8045654296875,14.84149169921875,9.49725341796875,25.0892333984375,9.49725341796875Z" style="fill: rgb(255, 255, 255);"/></g></g></g></g></g></g></g></g></g></svg>