<svg width="50" xmlns="http://www.w3.org/2000/svg" height="44.333" id="screenshot-07a612a7-0803-809f-8007-456bb806b287" viewBox="0 0 50 44.333" xmlns:xlink="http://www.w3.org/1999/xlink" fill="none" version="1.1"><g id="shape-07a612a7-0803-809f-8007-456bb806b287"><g class="frame-container-wrapper"><g class="frame-container-blur"><g class="frame-container-shadows"><g fill="none"><g class="fills" id="fills-07a612a7-0803-809f-8007-456bb806b287"><rect rx="0" ry="0" x="0" y="0" width="50" height="44.33333333333337" transform="matrix(1.000000, 0.000000, 0.000000, 1.000000, 0.000000, 0.000000)" class="frame-background"/></g><g class="frame-children"><g id="shape-07a612a7-0803-809f-8007-456bac27afde" width="1093" height="977" version="1" rx="0" ry="0" style="fill: rgb(0, 0, 0);"><g id="shape-07a612a7-0803-809f-8007-456bac296904" style="display: none;"><g class="fills" id="fills-07a612a7-0803-809f-8007-456bac296904"><rect width="49.82310843473215" height="44.257566765545505" x="0.004015841909051687" transform="matrix(1.000000, 0.000000, 0.000000, 1.000000, 0.000000, 0.000000)" style="fill: none;" ry="0" fill="none" rx="0" y="0.07576656778786628"/></g></g><g id="shape-07a612a7-0803-809f-8007-456bac29f45e" rx="0" ry="0" style="fill: rgb(0, 0, 0);"><g id="shape-07a612a7-0803-809f-8007-456bac30c871"><g class="fills" id="fills-07a612a7-0803-809f-8007-456bac30c871"><path d="M14.946033477783203,0.0686136856675148C14.034381866455078,0.0686136856675148,13.168292999267578,0.2951151430606842,12.393360137939453,0.7481181025505066C11.436084747314453,1.3370157480239868,10.706745147705078,2.2882792949676514,10.296497344970703,3.2848918437957764C9.795093536376953,4.507975101470947,9.612751007080078,5.866953372955322,9.567127227783203,7.180643558502197C9.521564483642578,9.445597648620605,9.886219024658203,11.66529369354248,10.433277130126953,13.839640617370605C9.430408477783203,14.15674877166748,8.427570343017578,14.473856925964355,7.424732208251953,14.83625316619873C5.783679962158203,15.515727043151855,4.142658233642578,16.285837173461914,2.729572296142578,17.41831398010254C1.7267341613769531,18.233713150024414,0.7694892883300781,19.275583267211914,0.3136482238769531,20.498666763305664C-0.09659957885742188,21.54056739807129,-0.09659957885742188,22.673044204711914,0.2680549621582031,23.71494483947754C0.5871467590332031,24.66623878479004,1.2253303527832031,25.526926040649414,1.9546699523925781,26.20639991760254C2.866321563720703,27.067087173461914,3.869190216064453,27.746591567993164,4.963184356689453,28.33548927307129C6.695392608642578,29.241464614868164,8.518726348876953,29.920969009399414,10.433277130126953,30.464548110961914C9.886219024658203,32.77482223510742,9.476001739501953,35.13041305541992,9.567127227783203,37.48600387573242C9.612751007080078,38.66373825073242,9.795093536376953,39.88688278198242,10.296497344970703,40.97404098510742C10.661182403564453,41.83475875854492,11.208179473876953,42.65006637573242,11.937488555908203,43.19370651245117C12.666828155517578,43.78263473510742,13.532947540283203,44.09965133666992,14.444629669189453,44.19028854370117C15.447467803955078,44.28092575073242,16.495899200439453,44.09965133666992,17.453174591064453,43.78263473510742C18.547168731689453,43.42020797729492,19.595571517944336,42.87662887573242,20.598440170288086,42.24241256713867C22.193838119506836,41.24583053588867,23.65254783630371,40.02274703979492,25.020071029663086,38.70902633666992C26.387563705444336,40.02274703979492,27.800710678100586,41.20054244995117,29.396108627319336,42.19712448120117C30.718069076538086,43.01249313354492,32.13115692138672,43.73728561401367,33.680992126464844,44.05436325073242C34.638267517089844,44.23557662963867,35.6411018371582,44.23557662963867,36.5983772277832,43.91849899291992C37.41887283325195,43.64670944213867,38.19377517700195,43.14841842651367,38.74080276489258,42.51420211791992C39.4245491027832,41.74412155151367,39.83479690551758,40.79282760620117,40.0627326965332,39.79624557495117C40.3818244934082,38.57316207885742,40.47298049926758,37.30472946166992,40.42741775512695,36.0363883972168C40.33623123168945,34.1338005065918,40.01716995239258,32.23124313354492,39.5612678527832,30.419260025024414C41.65816116333008,29.83036231994629,43.75505447387695,29.06028175354004,45.66951370239258,27.92777442932129C46.90031814575195,27.20298194885254,48.03987503051758,26.342294692993164,48.86043167114258,25.20981788635254C49.5441780090332,24.303842544555664,49.9999885559082,23.26194190979004,49.9999885559082,22.129465103149414C49.9999885559082,21.08756446838379,49.63533401489258,20.04569435119629,49.0427131652832,19.230295181274414C48.22224807739258,18.007211685180664,47.03703689575195,17.101205825805664,45.80632400512695,16.331125259399414C43.89177322387695,15.198649406433105,41.74934768676758,14.38325023651123,39.60689163208008,13.749064445495605C40.1994514465332,11.43879222869873,40.56413650512695,9.03791332244873,40.47298049926758,6.682352542877197C40.42741775512695,5.504557132720947,40.1994514465332,4.281473636627197,39.7436408996582,3.1942851543426514C39.37898635864258,2.3335978984832764,38.83195877075195,1.5181986093521118,38.05705642700195,0.9746195673942566C37.32771682739258,0.4310099184513092,36.4160041809082,0.1139322891831398,35.50435256958008,0.02332560159265995C34.547080993652344,-0.0672810897231102,33.58983612060547,0.1139322891831398,32.67815399169922,0.4310099184513092C31.538564682006836,0.7934061884880066,30.490163803100586,1.3823038339614868,29.487295150756836,2.0164897441864014C27.937429428100586,3.0130717754364014,26.478750228881836,4.236185550689697,25.15682029724121,5.504557132720947C23.698171615600586,4.100260257720947,22.14827537536621,2.8318889141082764,20.461660385131836,1.7899881601333618C19.185352325439453,1.0199075937271118,17.772205352783203,0.3404032289981842,16.222400665283203,0.1139322891831398C15.857715606689453,0.0686136856675148,15.538654327392578,0.02332560159265995,15.173938751220703,0.02332560159265995ZM15.037189483642578,2.1977031230926514C15.720935821533203,2.1977031230926514,16.359119415283203,2.3788859844207764,16.997303009033203,2.6053874492645264C18.592761993408203,3.1942851543426514,19.96028709411621,4.145578861236572,21.28218650817871,5.187448978424072C22.01155662536621,5.776346683502197,22.740896224975586,6.410532474517822,23.42464256286621,7.090036869049072C21.874807357788086,8.720805168151855,20.50728416442871,10.48749828338623,19.185352325439453,12.299479484558105C16.951740264892578,12.525980949401855,14.672534942626953,12.843058586120605,12.484546661376953,13.341349601745605C12.165454864501953,12.027689933776855,11.891925811767578,10.71399974822998,11.755176544189453,9.400309562683105C11.618396759033203,8.177226066589355,11.618396759033203,6.954142093658447,11.800769805908203,5.776346683502197C11.937488555908203,5.051554203033447,12.119861602783203,4.281473636627197,12.530109405517578,3.6472880840301514C12.894763946533203,3.0130717754364014,13.487384796142578,2.5147807598114014,14.171131134033203,2.3335978984832764C14.490192413330078,2.2429912090301514,14.763721466064453,2.2429912090301514,15.082813262939453,2.2429912090301514ZM34.866172790527344,2.1977031230926514C35.36760711669922,2.1977031230926514,35.82341384887695,2.2882792949676514,36.2792854309082,2.5147807598114014C36.96306228637695,2.8771770000457764,37.41887283325195,3.5566813945770264,37.6923713684082,4.236185550689697C38.10261917114258,5.232767581939697,38.19377517700195,6.365244388580322,38.19377517700195,7.452433109283447C38.19377517700195,9.445597648620605,37.87471389770508,11.43879222869873,37.3732795715332,13.341349601745605C35.185264587402344,12.843058586120605,32.906089782714844,12.525980949401855,30.67244529724121,12.299479484558105C29.35054588317871,10.48749828338623,27.98299217224121,8.720805168151855,26.43318748474121,7.090036869049072C27.75508689880371,5.821665287017822,29.213796615600586,4.598551273345947,30.809194564819336,3.6019694805145264C31.812063217163086,3.0130717754364014,32.86046600341797,2.5147807598114014,34.000083923339844,2.2882792949676514C34.27361297607422,2.2429912090301514,34.59270477294922,2.1977031230926514,34.866172790527344,2.1977031230926514ZM24.92891502380371,8.58491039276123C25.977346420288086,9.71741771697998,26.934560775756836,10.895182609558105,27.891836166381836,12.072978019714355C25.93172264099121,11.98237133026123,23.97163963317871,11.98237133026123,22.01155662536621,12.072978019714355C22.923208236694336,10.849894523620605,23.926076889038086,9.672099113464355,24.974477767944336,8.58491039276123ZM24.92891502380371,14.15674877166748C26.43318748474121,14.15674877166748,27.98299217224121,14.20203685760498,29.487295150756836,14.33796215057373C31.219472885131836,16.829416275024414,32.723716735839844,19.502084732055664,34.09123992919922,22.220041275024414C32.76934051513672,24.93802833557129,31.265066146850586,27.61069679260254,29.487295150756836,30.10215187072754C26.478750228881836,30.32865333557129,23.42464256286621,30.32865333557129,20.41609764099121,30.10215187072754C18.683917999267578,27.61069679260254,17.134082794189453,24.93802833557129,15.812122344970703,22.220041275024414C17.134082794189453,19.502084732055664,18.683917999267578,16.829416275024414,20.41609764099121,14.33796215057373C21.92037010192871,14.247355461120605,23.470205307006836,14.15674877166748,24.974477767944336,14.15674877166748ZM17.635486602783203,14.60975170135498C16.587085723876953,16.285837173461914,15.584217071533203,17.96189308166504,14.672534942626953,19.728586196899414C14.079944610595703,18.324289321899414,13.532947540283203,16.874704360961914,13.077106475830078,15.425150871276855C14.581378936767578,15.06275463104248,16.131214141845703,14.83625316619873,17.635486602783203,14.65503978729248ZM32.22234344482422,14.60975170135498C33.772178649902344,14.790934562683105,35.276451110839844,15.06275463104248,36.78068923950195,15.425150871276855C36.32487869262695,16.874704360961914,35.7778205871582,18.324289321899414,35.185264587402344,19.773874282836914C34.27361297607422,18.052499771118164,33.27074432373047,16.331125259399414,32.22234344482422,14.65503978729248ZM10.980274200439453,15.923441886901855C11.664020538330078,18.052499771118164,12.484546661376953,20.181589126586914,13.441761016845703,22.220041275024414C12.484546661376953,24.25852394104004,11.664020538330078,26.38761329650879,10.980274200439453,28.516672134399414C8.929004669189453,27.92777442932129,6.923297882080078,27.20298194885254,5.099933624267578,26.070505142211914C4.233844757080078,25.526926040649414,3.367755889892578,24.847421646118164,2.729572296142578,23.98673439025879C2.273761749267578,23.352548599243164,2.000232696533203,22.53714942932129,2.137012481689453,21.76706886291504C2.319324493408203,20.81577491760254,3.003101348876953,20.000375747680664,3.732410430908203,19.36618995666504C4.963184356689453,18.324289321899414,6.421863555908203,17.599496841430664,7.880542755126953,16.96531105041504C8.883380889892578,16.557626724243164,9.931812286376953,16.19523048400879,10.980274200439453,15.923441886901855ZM38.83195877075195,15.923441886901855C40.79207229614258,16.46702003479004,42.70659255981445,17.19181251525879,44.43880081176758,18.18839454650879C45.30485916137695,18.68668556213379,46.1253547668457,19.275583267211914,46.7635383605957,20.000375747680664C47.26497268676758,20.54398536682129,47.67522048950195,21.26877784729004,47.72078323364258,21.99357032775879C47.76640701293945,22.718332290649414,47.4929084777832,23.397836685180664,47.0826301574707,23.98673439025879C46.5356330871582,24.75681495666504,45.76070022583008,25.39103126525879,44.98576736450195,25.88932228088379C43.11687088012695,27.11240577697754,41.01997756958008,27.88248634338379,38.87752151489258,28.471384048461914C38.19377517700195,26.342294692993164,37.3732795715332,24.21323585510254,36.4160041809082,22.174753189086914C37.3732795715332,20.13627052307129,38.19377517700195,18.052499771118164,38.87752151489258,15.87812328338623ZM35.185264587402344,24.71152687072754C35.7778205871582,26.115793228149414,36.32487869262695,27.565378189086914,36.78068923950195,29.06028175354004C35.276451110839844,29.422677993774414,33.72655487060547,29.649179458618164,32.22234344482422,29.87565040588379C33.31633758544922,28.199594497680664,34.27361297607422,26.523508071899414,35.185264587402344,24.75681495666504ZM14.672534942626953,24.71152687072754C15.584217071533203,26.47818946838379,16.587085723876953,28.15427589416504,17.635486602783203,29.83036231994629C16.085651397705078,29.649179458618164,14.581378936767578,29.37735939025879,13.077106475830078,29.06028175354004C13.532947540283203,27.61069679260254,14.079944610595703,26.16111183166504,14.672534942626953,24.71152687072754ZM37.3732795715332,31.09873390197754C37.8290901184082,32.86542892456055,38.1481819152832,34.63212203979492,38.19377517700195,36.44407272338867C38.2393684387207,37.57658004760742,38.1481819152832,38.70902633666992,37.8290901184082,39.79624557495117C37.6011848449707,40.52103805541992,37.23653030395508,41.24583053588867,36.5983772277832,41.74412155151367C36.00578689575195,42.19712448120117,35.276451110839844,42.33304977416992,34.59270477294922,42.24241256713867C33.49864959716797,42.15177536010742,32.495811462402344,41.74412155151367,31.538564682006836,41.24583053588867C29.669607162475586,40.24924850463867,28.028615951538086,38.84495162963867,26.478750228881836,37.39536666870117C27.98299217224121,35.80988693237305,29.35054588317871,34.1338005065918,30.581289291381836,32.36713790893555C30.626882553100586,32.32184982299805,30.67244529724121,32.1859245300293,30.76363182067871,32.1859245300293C32.99724578857422,31.95945167541504,35.23082733154297,31.642343521118164,37.41887283325195,31.144052505493164ZM12.484546661376953,31.09873390197754C14.718128204345703,31.597055435180664,16.951740264892578,31.914133071899414,19.185352325439453,32.1406364440918C20.50728416442871,33.95261764526367,21.92037010192871,35.71928024291992,23.42464256286621,37.39536666870117C22.057119369506836,38.70902633666992,20.598440170288086,39.93217086791992,19.003009796142578,40.92875289916992C18.000171661376953,41.51762008666992,16.951740264892578,42.01591110229492,15.812122344970703,42.24241256713867C15.082813262939453,42.37833786010742,14.262287139892578,42.33304977416992,13.578540802001953,41.97062301635742C12.894763946533203,41.60819625854492,12.438922882080078,40.92875289916992,12.165454864501953,40.20389938354492C11.800769805908203,39.20731735229492,11.664020538330078,38.12015914916992,11.664020538330078,37.0329704284668C11.664020538330078,35.0398063659668,12.028675079345703,33.0919303894043,12.484546661376953,31.189340591430664ZM21.965932846069336,32.32184982299805C23.926076889038086,32.41242599487305,25.886159896850586,32.41242599487305,27.891836166381836,32.32184982299805C26.98018455505371,33.5449333190918,25.977346420288086,34.72269821166992,24.92891502380371,35.85520553588867C23.88045310974121,34.72269821166992,22.923208236694336,33.5449333190918,21.965932846069336,32.36713790893555Z" style="fill: rgb(97, 218, 251);"/></g></g><g id="shape-07a612a7-0803-809f-8007-456bac322e37"><g class="fills" id="fills-07a612a7-0803-809f-8007-456bac322e37"><path d="M24.51863670349121,17.780710220336914C25.38472557067871,17.69010353088379,26.25081443786621,17.87131690979004,27.025747299194336,18.279001235961914C27.937429428100586,18.777292251586914,28.666799545288086,19.547372817993164,29.03145408630371,20.498666763305664C29.487295150756836,21.58585548400879,29.487295150756836,22.854257583618164,29.03145408630371,23.94144630432129C28.438833236694336,25.43631935119629,26.98018455505371,26.523508071899414,25.38472557067871,26.65940284729004C24.427480697631836,26.750009536743164,23.379079818725586,26.523508071899414,22.55855369567871,26.025217056274414C21.646841049194336,25.48160743713379,20.96309471130371,24.575632095336914,20.644033432006836,23.579050064086914C20.279348373413086,22.49186134338379,20.41609764099121,21.26877784729004,20.917531967163086,20.226877212524414C21.60127830505371,18.86789894104004,23.014394760131836,17.91660499572754,24.51863670349121,17.825998306274414Z" style="fill: rgb(97, 218, 251);"/></g></g></g></g></g></g></g></g></g></g></svg>